<svg width="592" height="176" viewBox="0 0 592 176" fill="none" xmlns="http://www.w3.org/2000/svg" role="img" aria-labelledby="title desc">
  <title id="title">ACHLint logo</title>
  <desc id="desc">A purple geometric shield-like mark beside the ACHLint wordmark.</desc>
  <rect x="12" y="12" width="152" height="152" rx="36" fill="#EADDFF"/>
  <path d="M58 46C58 38.268 64.268 32 72 32H104C111.732 32 118 38.268 118 46V58H132C139.732 58 146 64.268 146 72V104C146 111.732 139.732 118 132 118H118V130C118 137.732 111.732 144 104 144H72C64.268 144 58 137.732 58 130V118H44C36.268 118 30 111.732 30 104V72C30 64.268 36.268 58 44 58H58V46Z" fill="#6750A4"/>
  <path d="M58 58H118V72H58V58ZM58 104H118V118H58V104ZM72 72H86V104H72V72ZM104 72H118V104H104V72Z" fill="#FFFBFE"/>
  <path d="M214.051 63.192C218.211 52.952 227.747 46.808 241.635 46.808C256.867 46.808 268.259 54.744 271.811 67.8H252.675C250.499 63.256 246.531 61.272 241.251 61.272C232.739 61.272 227.171 67.8 227.171 78.872C227.171 89.944 232.739 96.472 241.251 96.472C246.531 96.472 250.499 94.488 252.675 89.944H271.811C268.259 103 256.867 110.84 241.635 110.84C227.747 110.84 218.211 104.696 214.051 94.456H204.451V108.728H186.467V48.92H204.451V63.192H214.051ZM316.082 48.92H334.066V108.728H316.082V85.304H294.77V108.728H276.786V48.92H294.77V70.84H316.082V48.92ZM343.646 108.728V48.92H361.63V94.84H389.95V108.728H343.646ZM396.529 108.728V48.92H414.513V108.728H396.529ZM471.009 48.92V63.288H455.201V108.728H437.217V63.288H421.505V48.92H471.009ZM478.113 108.728V48.92H496.097L520.097 85.208V48.92H538.081V108.728H520.097L496.097 72.248V108.728H478.113Z" fill="#1C1B1F"/>
  <path d="M216.451 131.312V122.864H217.987V130H221.843V131.312H216.451ZM223.357 131.312V122.864H224.893V131.312H223.357ZM226.759 131.312V122.864H232.231V124.14H228.295V126.42H231.779V127.66H228.295V131.312H226.759ZM233.612 131.312V122.864H239.276V124.14H235.148V126.348H238.812V127.588H235.148V130.036H239.276V131.312H233.612Z" fill="#49454F"/>
</svg>
